<svg width="11" height="10" viewBox="0 0 11 10" fill="none" xmlns="http://www.w3.org/2000/svg">
<path d="M9.44201 0.153035L5.50001 4.09504L1.55801 0.153035C1.4632 0.0662747 1.33857 0.0194395 1.21008 0.0222864C1.0816 0.0251333 0.959167 0.0774429 0.868292 0.168318C0.777418 0.259193 0.725108 0.381625 0.722261 0.51011C0.719414 0.638595 0.766249 0.763225 0.85301 0.858036L4.79301 4.80004L0.85201 8.74104C0.803863 8.78692 0.765374 8.84197 0.738806 8.90294C0.712238 8.96391 0.698128 9.02958 0.697304 9.09609C0.69648 9.16259 0.70896 9.22859 0.73401 9.29021C0.759059 9.35182 0.796173 9.4078 0.843169 9.45486C0.890166 9.50193 0.946096 9.53912 1.00767 9.56426C1.06925 9.58939 1.13523 9.60197 1.20174 9.60124C1.26824 9.60051 1.33393 9.58649 1.39494 9.56001C1.45596 9.53353 1.51106 9.49512 1.55701 9.44704L5.50001 5.50604L9.44201 9.44804C9.53682 9.5348 9.66145 9.58163 9.78994 9.57878C9.91842 9.57594 10.0409 9.52363 10.1317 9.43275C10.2226 9.34188 10.2749 9.21945 10.2778 9.09096C10.2806 8.96248 10.2338 8.83785 10.147 8.74304L6.20501 4.80104L10.147 0.858036C10.1952 0.812151 10.2336 0.757104 10.2602 0.69613C10.2868 0.635157 10.3009 0.569487 10.3017 0.502982C10.3025 0.436477 10.2901 0.370478 10.265 0.308866C10.24 0.247253 10.2028 0.19127 10.1559 0.144206C10.1089 0.0971434 10.0529 0.0599502 9.99135 0.0348134C9.92977 0.00967653 9.86379 -0.00289665 9.79728 -0.00216726C9.73078 -0.00143786 9.66509 0.0125795 9.60408 0.0390608C9.54307 0.0655421 9.48796 0.103953 9.44201 0.152035V0.153035Z" fill="#909399"/>
</svg>
