<svg width="24" height="24" viewBox="0 0 24 24" fill="none" xmlns="http://www.w3.org/2000/svg">
<path d="M12 17.5275L17.3475 20.3385C17.3722 20.3514 17.4001 20.3572 17.4279 20.3552C17.4557 20.3532 17.4824 20.3434 17.505 20.3271C17.5276 20.3107 17.5452 20.2884 17.5558 20.2626C17.5664 20.2368 17.5696 20.2085 17.565 20.181L16.545 14.226L20.8695 10.0095C20.8893 9.98997 20.9033 9.96533 20.9099 9.93832C20.9165 9.91132 20.9154 9.88302 20.9069 9.85657C20.8983 9.83012 20.8826 9.80657 20.8614 9.78855C20.8402 9.77052 20.8145 9.75873 20.787 9.7545L14.808 8.8845L12.135 3.4665C12.1227 3.44114 12.1036 3.41975 12.0797 3.40478C12.0558 3.38982 12.0282 3.38188 12 3.38188C11.9718 3.38188 11.9442 3.38982 11.9204 3.40478C11.8965 3.41975 11.8773 3.44114 11.865 3.4665L9.19202 8.8845L3.21302 9.7545C3.18554 9.75873 3.15979 9.77052 3.13863 9.78855C3.11747 9.80657 3.10173 9.83012 3.09317 9.85657C3.08462 9.88302 3.08358 9.91132 3.09017 9.93832C3.09677 9.96533 3.11073 9.98997 3.13052 10.0095L7.45502 14.226L6.43352 20.181C6.42894 20.2085 6.43214 20.2368 6.44273 20.2626C6.45333 20.2884 6.47092 20.3107 6.49351 20.3271C6.51611 20.3434 6.54281 20.3532 6.57064 20.3552C6.59846 20.3572 6.6263 20.3514 6.65102 20.3385L12 17.5275ZM7.35002 21.6675C7.07745 21.8108 6.77023 21.875 6.46309 21.8527C6.15596 21.8305 5.86117 21.7228 5.61208 21.5418C5.36298 21.3607 5.16952 21.1136 5.05358 20.8283C4.93764 20.543 4.90384 20.231 4.95602 19.9275L5.84402 14.7495L2.08502 11.085C1.86465 10.87 1.70882 10.5977 1.63513 10.2988C1.56144 9.99994 1.57283 9.6864 1.66803 9.39365C1.76322 9.1009 1.93841 8.84061 2.17379 8.64222C2.40918 8.44383 2.69537 8.31524 3.00002 8.271L8.19752 7.515L10.5225 2.805C10.6589 2.52924 10.8697 2.2971 11.131 2.13479C11.3924 1.97248 11.6939 1.88647 12.0015 1.88647C12.3092 1.88647 12.6107 1.97248 12.872 2.13479C13.1334 2.2971 13.3441 2.52924 13.4805 2.805L15.8055 7.515L21.0045 8.271C21.3092 8.31524 21.5954 8.44383 21.8307 8.64222C22.0661 8.84061 22.2413 9.1009 22.3365 9.39365C22.4317 9.6864 22.4431 9.99994 22.3694 10.2988C22.2957 10.5977 22.1399 10.87 21.9195 11.085L18.1575 14.751L19.0455 19.929C19.0977 20.2325 19.0639 20.5445 18.948 20.8298C18.832 21.1151 18.6385 21.3622 18.3895 21.5433C18.1404 21.7243 17.8456 21.832 17.5384 21.8542C17.2313 21.8765 16.9241 21.8123 16.6515 21.669L12 19.221L7.35002 21.666V21.6675Z" fill="#FFA500"/>
</svg>
