<svg width="24" height="24" viewBox="0 0 24 24" fill="none" xmlns="http://www.w3.org/2000/svg">
<path d="M6.65256 20.34L12.0001 17.526L17.3476 20.337C17.3723 20.3499 17.4001 20.3557 17.4279 20.3537C17.4558 20.3517 17.4825 20.342 17.5051 20.3256C17.5277 20.3092 17.5452 20.2869 17.5558 20.2611C17.5664 20.2353 17.5696 20.207 17.5651 20.1795L16.5451 14.2245L20.8696 10.008C20.8893 9.98849 20.9033 9.96385 20.9099 9.93684C20.9165 9.90984 20.9155 9.88153 20.9069 9.85509C20.8984 9.82864 20.8826 9.80509 20.8615 9.78707C20.8403 9.76904 20.8145 9.75725 20.7871 9.75301L14.8081 8.88301L12.1351 3.46651C12.1228 3.44115 12.1036 3.41976 12.0797 3.4048C12.0559 3.38983 12.0282 3.3819 12.0001 3.3819C11.9719 3.3819 11.9443 3.38983 11.9204 3.4048C11.8965 3.41976 11.8773 3.44115 11.8651 3.46651L9.19206 8.88451L3.21306 9.75451C3.18559 9.75875 3.15984 9.77054 3.13868 9.78856C3.11751 9.80659 3.10178 9.83014 3.09322 9.85659C3.08466 9.88303 3.08362 9.91134 3.09022 9.93834C3.09681 9.96535 3.11078 9.98999 3.13056 10.0095L7.45506 14.226L6.43356 20.181C6.42899 20.2085 6.43218 20.2368 6.44278 20.2626C6.45338 20.2884 6.47096 20.3107 6.49356 20.3271C6.51615 20.3435 6.54286 20.3532 6.57069 20.3552C6.59851 20.3572 6.62635 20.3514 6.65106 20.3385L6.65256 20.34Z" fill="#FFA500"/>
</svg>
